<?xml version="1.0" encoding="UTF-8"?>
<svg version="1.1" xmlns="http://www.w3.org/2000/svg" width="512" height="512">
    <path d="M0 0 C6.13099846 4.36244121 10.35090697 9.57908135 12 17 C12.92900423 25.54683895 11.80073863 31.81872981 7 39 C3.53117832 43.19909993 -0.20607758 45.55781311 -5 48 C-5.66 48 -6.32 48 -7 48 C-7 60.87 -7 73.74 -7 87 C14.30718802 90.20023421 14.30718802 90.20023421 33.2890625 82.32128906 C45.00107328 72.45059278 55.19258792 60.72662922 65 49 C64.7827124 48.26612061 64.5654248 47.53224121 64.34155273 46.77612305 C64.06255127 45.80199463 63.7835498 44.82786621 63.49609375 43.82421875 C63.21693115 42.86346436 62.93776855 41.90270996 62.65014648 40.9128418 C61.1655034 34.26121706 62.32982347 27.80866742 65.640625 21.8828125 C69.71681335 16.23705738 75.28663431 11.87093798 82 10 C90.71864589 8.98168047 97.80261417 9.75979804 105 15 C110.56291343 20.03557405 113.51789134 24.71684513 114.37109375 32.296875 C114.52477699 40.28840326 113.97304711 46.52696189 109 53 C102.40526242 59.61939081 95.87682109 62.19400138 86.6015625 62.265625 C84 62 84 62 82.00804138 61.34347534 C77.58003405 59.88925761 77.58003405 59.88925761 73.19641113 60.83154297 C71.44915577 62.27751075 69.95262353 63.80802828 68.43359375 65.4921875 C67.86923111 66.07211456 67.30486847 66.65204163 66.72340393 67.24954224 C64.93389773 69.10043394 63.18644792 70.98581874 61.4375 72.875 C60.228499 74.13919839 59.01693393 75.40094997 57.80273438 76.66015625 C54.83803299 79.74587695 51.91047119 82.86311309 49 86 C49.95942505 86.00142502 50.9188501 86.00285004 51.90734863 86.00431824 C60.97023176 86.02102245 70.03266785 86.06390028 79.09531403 86.13209057 C83.75403724 86.16631161 88.41243423 86.19146292 93.07128906 86.19555664 C97.57144291 86.19985011 102.07086146 86.22839921 106.57078552 86.27343178 C108.28343922 86.28637339 109.99618107 86.29072632 111.70887756 86.28615379 C127.89894076 86.25301156 127.89894076 86.25301156 133.63928223 90.62593079 C137.85099559 94.87896972 140.11201874 99.145636 140.14717102 105.10331726 C140.15790398 106.35428444 140.15790398 106.35428444 140.16885376 107.63052368 C140.17154266 108.54224335 140.17423157 109.45396301 140.17700195 110.39331055 C140.18357315 111.35625534 140.19014435 112.31920013 140.19691467 113.31132507 C140.21665004 116.50312375 140.22831162 119.69487533 140.23828125 122.88671875 C140.24235678 123.97723856 140.2464323 125.06775837 140.25063133 126.19132423 C140.27149434 131.96470577 140.28579437 137.73806353 140.29516602 143.51147461 C140.30622327 149.46889942 140.34061497 155.42594998 140.38033772 161.38324261 C140.40651063 165.96870101 140.41485854 170.55407041 140.41844749 175.13959694 C140.42331266 177.33517798 140.43492459 179.53075507 140.45348549 181.72626305 C140.47788779 184.8043805 140.47690948 187.8815318 140.4699707 190.9597168 C140.48918579 192.31211456 140.48918579 192.31211456 140.50878906 193.6918335 C140.46042224 199.59907495 139.33998024 204.06567454 136 209 C130.73120715 214.00535321 126.54512898 215.29721672 119.38574219 215.31884766 C118.62437958 215.32889328 117.86301697 215.3389389 117.07858276 215.34928894 C114.56802102 215.38012062 112.05756592 215.3971559 109.546875 215.4140625 C107.80380333 215.43277417 106.06074071 215.45234759 104.31768799 215.4727478 C99.73434794 215.52407512 95.15097852 215.56369763 90.56750488 215.60089111 C85.88867931 215.64092699 81.20997598 215.69202124 76.53125 215.7421875 C67.35425253 215.83895388 58.17718605 215.92335642 49 216 C52.50233072 219.77478926 56.03974923 223.51151005 59.61401367 227.21826172 C60.82380197 228.48328335 62.02352464 229.75801299 63.21264648 231.04248047 C64.92720521 232.8909108 66.67531463 234.70104222 68.43359375 236.5078125 C69.21699379 237.37637375 69.21699379 237.37637375 70.01622009 238.26248169 C71.63947589 239.88833178 72.9121233 241.03306783 75 242 C77.45511782 241.89268153 79.47967382 241.40940702 81.81654358 240.66110229 C88.44850664 238.65309061 94.96218447 239.86176782 101 243 C107.72748283 246.78889832 111.8226202 251.52466381 114 259 C115.04399785 267.13948766 114.87703693 275.12843257 110 282 C105.00255814 287.53946376 99.58586224 291.46438092 92.0234375 292.34765625 C83.13268887 292.75367404 76.73856813 291.03987566 69.93359375 285.23828125 C64.61926389 279.76862651 62.03185877 273.74058465 61.98046875 266.09375 C62.32263387 261.29052637 63.16035982 257.4512515 65 253 C44.50889906 226.4165131 44.50889906 226.4165131 15.51538086 213.08151245 C7.9276355 212.71410649 0.55241216 214.09868332 -7 215 C-7 227.87 -7 240.74 -7 254 C-5.02 254.66 -3.04 255.32 -1 256 C5.07030326 259.34486098 8.32729614 263.57493972 11.3125 269.6875 C13.14321494 278.50821745 12.64999687 286.20724662 8 294 C4.12308541 299.81537189 -1.17031154 303.48229145 -8 305 C-17.44705573 305.89199668 -23.97342014 304.35105324 -31.8125 299.125 C-37.76895417 293.33873023 -40.06467007 287.3491772 -40.375 279.1875 C-40.2404528 271.95783048 -38.31106435 266.8246342 -33.75 261.25 C-24.88888889 254 -24.88888889 254 -21 254 C-21 241.13 -21 228.26 -21 215 C-42.30718802 211.79976579 -42.30718802 211.79976579 -61.2890625 219.67871094 C-73.00107328 229.54940722 -83.19258792 241.27337078 -93 253 C-92.7827124 253.73387939 -92.5654248 254.46775879 -92.34155273 255.22387695 C-92.06255127 256.19800537 -91.7835498 257.17213379 -91.49609375 258.17578125 C-91.21693115 259.13653564 -90.93776855 260.09729004 -90.65014648 261.0871582 C-89.1655034 267.73878294 -90.32982347 274.19133258 -93.640625 280.1171875 C-97.71681335 285.76294262 -103.28663431 290.12906202 -110 292 C-118.71864589 293.01831953 -125.80261417 292.24020196 -133 287 C-138.56291343 281.96442595 -141.51789134 277.28315487 -142.37109375 269.703125 C-142.52477699 261.71159674 -141.97304711 255.47303811 -137 249 C-130.40526242 242.38060919 -123.87682109 239.80599862 -114.6015625 239.734375 C-112 240 -112 240 -110.00804138 240.65652466 C-105.58003405 242.11074239 -105.58003405 242.11074239 -101.19641113 241.16845703 C-99.44915577 239.72248925 -97.95262353 238.19197172 -96.43359375 236.5078125 C-95.86923111 235.92788544 -95.30486847 235.34795837 -94.72340393 234.75045776 C-92.93389773 232.89956606 -91.18644792 231.01418126 -89.4375 229.125 C-88.228499 227.86080161 -87.01693393 226.59905003 -85.80273438 225.33984375 C-82.83803299 222.25412305 -79.91047119 219.13688691 -77 216 C-77.95942505 215.99857498 -78.9188501 215.99714996 -79.90734863 215.99568176 C-88.97023176 215.97897755 -98.03266785 215.93609972 -107.09531403 215.86790943 C-111.75403724 215.83368839 -116.41243423 215.80853708 -121.07128906 215.80444336 C-125.57144291 215.80014989 -130.07086146 215.77160079 -134.57078552 215.72656822 C-136.28343922 215.71362661 -137.99618107 215.70927368 -139.70887756 215.71384621 C-155.89894076 215.74698844 -155.89894076 215.74698844 -161.63928223 211.37406921 C-165.85099559 207.12103028 -168.11201874 202.854364 -168.14717102 196.89668274 C-168.15432632 196.06270462 -168.16148163 195.2287265 -168.16885376 194.36947632 C-168.17154266 193.45775665 -168.17423157 192.54603699 -168.17700195 191.60668945 C-168.18357315 190.64374466 -168.19014435 189.68079987 -168.19691467 188.68867493 C-168.21665004 185.49687625 -168.22831162 182.30512467 -168.23828125 179.11328125 C-168.24235678 178.02276144 -168.2464323 176.93224163 -168.25063133 175.80867577 C-168.27149434 170.03529423 -168.28579437 164.26193647 -168.29516602 158.48852539 C-168.30622327 152.53110058 -168.34061497 146.57405002 -168.38033772 140.61675739 C-168.40651063 136.03129899 -168.41485854 131.44592959 -168.41844749 126.86040306 C-168.42331266 124.66482202 -168.43492459 122.46924493 -168.45348549 120.27373695 C-168.47788779 117.1956195 -168.47690948 114.1184682 -168.4699707 111.0402832 C-168.48278076 110.13868469 -168.49559082 109.23708618 -168.50878906 108.3081665 C-168.46042224 102.40092505 -167.33998024 97.93432546 -164 93 C-158.73120715 87.99464679 -154.54512898 86.70278328 -147.38574219 86.68115234 C-146.62437958 86.67110672 -145.86301697 86.6610611 -145.07858276 86.65071106 C-142.56802102 86.61987938 -140.05756592 86.6028441 -137.546875 86.5859375 C-135.80380333 86.56722583 -134.06074071 86.54765241 -132.31768799 86.5272522 C-127.73434794 86.47592488 -123.15097852 86.43630237 -118.56750488 86.39910889 C-113.88867931 86.35907301 -109.20997598 86.30797876 -104.53125 86.2578125 C-95.35425253 86.16104612 -86.17718605 86.07664358 -77 86 C-80.50233072 82.22521074 -84.03974923 78.48848995 -87.61401367 74.78173828 C-88.82380197 73.51671665 -90.02352464 72.24198701 -91.21264648 70.95751953 C-92.92720521 69.1090892 -94.67531463 67.29895778 -96.43359375 65.4921875 C-96.95586044 64.91314667 -97.47812714 64.33410583 -98.01622009 63.73751831 C-99.63947589 62.11166822 -100.9121233 60.96693217 -103 60 C-105.45511782 60.10731847 -107.47967382 60.59059298 -109.81654358 61.33889771 C-116.44850664 63.34690939 -122.96218447 62.13823218 -129 59 C-135.72748283 55.21110168 -139.8226202 50.47533619 -142 43 C-143.04399785 34.86051234 -142.87703693 26.87156743 -138 20 C-133.00255814 14.46053624 -127.58586224 10.53561908 -120.0234375 9.65234375 C-111.13268887 9.24632596 -104.73856813 10.96012434 -97.93359375 16.76171875 C-92.61926389 22.23137349 -90.03185877 28.25941535 -89.98046875 35.90625 C-90.32263387 40.70947363 -91.16035982 44.5487485 -93 49 C-72.50889906 75.5834869 -72.50889906 75.5834869 -43.51538086 88.91848755 C-35.9276355 89.28589351 -28.55241216 87.90131668 -21 87 C-21 74.13 -21 61.26 -21 48 C-23.97 47.01 -23.97 47.01 -27 46 C-33.07030326 42.65513902 -36.32729614 38.42506028 -39.3125 32.3125 C-41.47488281 21.89374646 -39.87915325 14.09581226 -34.25 5.25 C-25.21468496 -3.78531504 -11.4442271 -6.4149255 0 0 Z " fill="#231F20" transform="translate(270,105)"/>
    <path d="M0 0 C1.07765625 0.03609375 2.1553125 0.0721875 3.265625 0.109375 C4.49539062 0.17898437 4.49539062 0.17898437 5.75 0.25 C5.24533203 1.14138672 5.24533203 1.14138672 4.73046875 2.05078125 C3.38087736 5.07795239 3.97757484 7.09007888 4.75 10.25 C5.92110184 11.63908639 5.92110184 11.63908639 9.1875 11.5 C10.363125 11.4175 11.53875 11.335 12.75 11.25 C15.08296251 8.42282787 15.08296251 8.42282787 14.5 5.1875 C13.9906756 2.150541 13.9906756 2.150541 11.75 0.25 C44.29477935 0.15879297 76.83952194 0.08798375 109.38439988 0.04573868 C113.22469127 0.04073572 117.06498242 0.03555845 120.90527344 0.03027344 C122.05209565 0.02869957 122.05209565 0.02869957 123.22208598 0.02709392 C135.60928777 0.00967819 147.99641546 -0.02186589 160.38357326 -0.05861118 C173.08944739 -0.09598819 185.79528265 -0.11822898 198.5012095 -0.12635398 C206.34448661 -0.13184851 214.18755432 -0.14921601 222.03076699 -0.18166587 C228.04015433 -0.20526543 234.04936069 -0.20782806 240.05879974 -0.20243073 C242.52757051 -0.2035345 244.99634894 -0.21153502 247.46507263 -0.2268219 C250.8270883 -0.24662548 254.18819673 -0.24197378 257.55023193 -0.23101807 C259.02687903 -0.24849512 259.02687903 -0.24849512 260.53335738 -0.26632524 C267.09249213 -0.20826428 267.09249213 -0.20826428 270.35742188 2.06729889 C272.36849669 5.21942024 272.27783826 8.15448314 272.20410156 11.77246094 C272.20468567 12.52406998 272.20526978 13.27567902 272.20587158 14.05006409 C272.20308998 16.52864135 272.17199617 19.00600845 272.140625 21.484375 C272.13316284 23.20501041 272.12746979 24.92565432 272.12347412 26.64630127 C272.10821575 31.17075139 272.06893242 35.69468628 272.0246582 40.21893311 C271.98370975 44.83729076 271.96546403 49.45573181 271.9453125 54.07421875 C271.90243818 63.13303863 271.83418454 72.19147644 271.75 81.25 C271.32847656 80.76144531 270.90695312 80.27289063 270.47265625 79.76953125 C268.68439513 77.88917512 268.68439513 77.88917512 265.1875 77.9375 C261.68731528 77.88589512 261.68731528 77.88589512 259.75 80.25 C259.84695116 84.59194936 259.84695116 84.59194936 261.75 88.25 C265.16624258 88.58354403 265.16624258 88.58354403 268.75 88.25 C270.47221315 86.80995017 270.47221315 86.80995017 271.75 85.25 C271.85832169 87.33218362 271.93573541 89.41599129 272 91.5 C272.04640625 92.66015625 272.0928125 93.8203125 272.140625 95.015625 C271.75 98.25 271.75 98.25 270.125 100.65625 C267.05478899 102.71652317 265.16398755 102.65930381 261.5 102.5 C260.42234375 102.46390625 259.3446875 102.4278125 258.234375 102.390625 C257.41453125 102.34421875 256.5946875 102.2978125 255.75 102.25 C256.07484375 101.64414062 256.3996875 101.03828125 256.734375 100.4140625 C257.95185941 97.81988417 258.04847984 96.08555844 257.75 93.25 C255.80667668 90.87005632 255.80667668 90.87005632 252.25 91 C248.69332332 90.87005632 248.69332332 90.87005632 246.75 93.25 C246.98864442 98.28505052 246.98864442 98.28505052 249.75 102.25 C243.15 102.25 236.55 102.25 229.75 102.25 C230.74 100.765 230.74 100.765 231.75 99.25 C232.2281979 95.18655837 232.2281979 95.18655837 230.5859375 91.60546875 C228.08482694 89.75890414 226.14179427 89.74363496 223.0625 89.5625 C222.06863281 89.49675781 221.07476562 89.43101562 220.05078125 89.36328125 C219.29152344 89.32589844 218.53226563 89.28851563 217.75 89.25 C218.08 88.59 218.41 87.93 218.75 87.25 C218.8189472 85.87657169 218.83467708 84.49997898 218.8125 83.125 C218.7815625 81.206875 218.7815625 81.206875 218.75 79.25 C215.98749964 77.86874982 213.80268901 78.05920694 210.75 78.25 C208.43313634 80.12644507 208.43313634 80.12644507 208.5625 83.1875 C208.62049768 86.29093079 208.62049768 86.29093079 209.75 89.25 C204.14 89.25 198.53 89.25 192.75 89.25 C193.07552083 86.97135417 193.40104167 84.69270833 193.7265625 82.4140625 C193.73429688 81.69992187 193.74203125 80.98578125 193.75 80.25 C191.80541686 77.8778031 191.80541686 77.8778031 188.25 77.9375 C187.095 78.040625 185.94 78.14375 184.75 78.25 C182.40439945 81.07907671 182.40439945 81.07907671 183.0625 84.3125 C183.6100626 87.1631423 183.6100626 87.1631423 184.75 89.25 C178.81 89.25 172.87 89.25 166.75 89.25 C167.07552083 86.97135417 167.40104167 84.69270833 167.7265625 82.4140625 C167.73429688 81.69992187 167.74203125 80.98578125 167.75 80.25 C165.98863645 78.06668311 165.98863645 78.06668311 163.8046875 78.0546875 C161.78645833 78.11979167 159.76822917 78.18489583 157.75 78.25 C157.729375 79.508125 157.70875 80.76625 157.6875 82.0625 C157.67009766 83.12404297 157.67009766 83.12404297 157.65234375 84.20703125 C157.66736783 86.45305461 157.66736783 86.45305461 158.75 89.25 C152.81 89.25 146.87 89.25 140.75 89.25 C141.74 87.27 141.74 87.27 142.75 85.25 C142.57310163 81.42029719 142.57310163 81.42029719 140.75 78.25 C137.29178598 77.99996036 137.29178598 77.99996036 133.75 78.25 C133.09 78.91 132.43 79.57 131.75 80.25 C131.72691403 82.47128555 131.72691403 82.47128555 132.125 84.875 C132.33125 86.31875 132.5375 87.7625 132.75 89.25 C127.14 89.25 121.53 89.25 115.75 89.25 C116.07552083 86.97135417 116.40104167 84.69270833 116.7265625 82.4140625 C116.73429687 81.69992187 116.74203125 80.98578125 116.75 80.25 C114.86624325 77.92516215 114.86624325 77.92516215 111.75 78.0625 C108.82613397 78.04920391 108.82613397 78.04920391 106.75 79.25 C106.729375 80.52875 106.70875 81.8075 106.6875 83.125 C106.67589844 83.84429687 106.66429687 84.56359375 106.65234375 85.3046875 C106.62350758 87.33185404 106.62350758 87.33185404 107.75 89.25 C101.81 89.25 95.87 89.25 89.75 89.25 C90.08 88.59 90.41 87.93 90.75 87.25 C90.8189472 85.87657169 90.83467708 84.49997898 90.8125 83.125 C90.791875 81.84625 90.77125 80.5675 90.75 79.25 C87.98749964 77.86874982 85.80268901 78.05920694 82.75 78.25 C80.43313634 80.12644507 80.43313634 80.12644507 80.5625 83.1875 C80.62049768 86.29093079 80.62049768 86.29093079 81.75 89.25 C76.14 89.25 70.53 89.25 64.75 89.25 C65.07552083 87.00390625 65.40104167 84.7578125 65.7265625 82.51171875 C65.96533407 79.96276785 65.96533407 79.96276785 63.75 77.25 C64.49765625 77.22421875 65.2453125 77.1984375 66.015625 77.171875 C67.00046875 77.11515625 67.9853125 77.0584375 69 77 C69.97453125 76.95359375 70.9490625 76.9071875 71.953125 76.859375 C75.58983827 76.06701848 76.56002815 75.27574014 78.75 72.25 C79.35258419 69.02230584 79.31037986 65.83430765 79.28125 62.55859375 C79.2850769 61.61693863 79.28890381 60.67528351 79.29284668 59.70509338 C79.29556551 57.71720305 79.28820633 55.72927693 79.27148438 53.74145508 C79.25005042 50.69466712 79.27129922 47.65023084 79.296875 44.60351562 C79.29423219 42.67186979 79.28910817 40.74022541 79.28125 38.80859375 C79.28934692 37.89605331 79.29744385 36.98351288 79.30578613 36.0433197 C79.29317749 35.19556473 79.28056885 34.34780975 79.26757812 33.47436523 C79.26439575 32.72920151 79.26121338 31.98403778 79.25793457 31.21629333 C78.88459553 29.1010391 78.88459553 29.1010391 77.05860901 27.508255 C74.25909165 25.98244153 72.4746722 25.88146771 69.29467773 25.89355469 C68.20352158 25.89055359 67.11236542 25.88755249 65.98814392 25.88446045 C64.81514236 25.89680725 63.64214081 25.90915405 62.43359375 25.921875 C60.62158226 25.92468475 60.62158226 25.92468475 58.77296448 25.92755127 C56.22011555 25.9342723 53.66727692 25.94818772 51.11450195 25.96875 C47.19928455 25.99990622 43.28446972 26.00972138 39.36914062 26.015625 C36.89062007 26.02479495 34.41210363 26.0351707 31.93359375 26.046875 C30.75856796 26.05112488 29.58354218 26.05537476 28.37290955 26.05975342 C27.28490555 26.06936096 26.19690155 26.07896851 25.07592773 26.08886719 C23.63841408 26.09910919 23.63841408 26.09910919 22.17185974 26.10955811 C19.60741062 26.15265412 19.60741062 26.15265412 16.75 27.25 C16.75 27.91 16.75 28.57 16.75 29.25 C16.234375 28.92 15.71875 28.59 15.1875 28.25 C10.97911538 26.52348323 7.00800538 26.83066487 2.75 28.25 C2.70101562 27.40695313 2.65203125 26.56390625 2.6015625 25.6953125 C2.48941406 24.05175781 2.48941406 24.05175781 2.375 22.375 C2.30539063 21.28445312 2.23578125 20.19390625 2.1640625 19.0703125 C2.01746509 16.11953526 2.01746509 16.11953526 -0.25 14.25 C-3.70800359 13.83326793 -3.70800359 13.83326793 -7.25 14.25 C-8.96695911 15.69524565 -8.96695911 15.69524565 -10.25 17.25 C-10.35832169 15.16781638 -10.43573541 13.08400871 -10.5 11 C-10.54640625 9.83984375 -10.5928125 8.6796875 -10.640625 7.484375 C-10.25 4.25 -10.25 4.25 -8.625 1.84375 C-5.55478899 -0.21652317 -3.66398755 -0.15930381 0 0 Z " fill="#FEFEFE" transform="translate(125.25,204.75)"/>
    <path d="M0 0 C0.99 0.99 1.98 1.98 3 3 C7.80202562 3.59141759 7.80202562 3.59141759 11.9375 1.5 C12.288125 1.005 12.63875 0.51 13 0 C13 2.31 13 4.62 13 7 C13.99 6.34 14.98 5.68 16 5 C19.81546222 4.6531398 22.13278796 4.46633105 25.4375 6.5 C25.953125 6.995 26.46875 7.49 27 8 C27 7.34 27 6.68 27 6 C30.33076643 3.77948905 31.42266328 3.74049445 35.31005859 3.70947266 C36.93722305 3.6903331 36.93722305 3.6903331 38.59725952 3.67080688 C39.76914825 3.66858124 40.94103699 3.66635559 42.1484375 3.6640625 C43.35311676 3.6574057 44.55779602 3.6507489 45.79898071 3.64389038 C48.34937003 3.63375726 50.89978589 3.62907356 53.45019531 3.62939453 C57.35265832 3.62502502 61.25398745 3.58871991 65.15625 3.55078125 C67.63280863 3.54491258 70.10937263 3.54094352 72.5859375 3.5390625 C74.33769791 3.51750595 74.33769791 3.51750595 76.12484741 3.49551392 C80.62852433 3.52091286 84.08716804 3.59712195 88.234375 5.42749023 C90.93542907 9.36291705 90.71637512 12.94739033 90.6640625 17.62109375 C90.66884613 18.55800552 90.67362976 19.4949173 90.67855835 20.46022034 C90.68195752 22.43972453 90.67275383 24.41928485 90.65185547 26.39868164 C90.62511959 29.42396763 90.65158658 32.44553342 90.68359375 35.47070312 C90.68028907 37.39584151 90.67388162 39.32097757 90.6640625 41.24609375 C90.67924423 42.59942055 90.67924423 42.59942055 90.69473267 43.98008728 C90.6111078 48.47736836 90.45938902 50.40688036 87.62573242 54.06542969 C84.74584637 56.18725369 83.22111114 56.67115555 79.6875 56.8125 C78.80449219 56.86019531 77.92148438 56.90789062 77.01171875 56.95703125 C76.34785156 56.97121094 75.68398437 56.98539062 75 57 C75.66 57.66 76.32 58.32 77 59 C76.45652174 65.08695652 76.45652174 65.08695652 75 68 C80.61 68 86.22 68 92 68 C91.34 67.01 90.68 66.02 90 65 C89.67497197 61.87973093 89.48848521 59.85252465 91.125 57.125 C93.85252465 55.48848521 95.87973093 55.67497197 99 56 C100.485 56.99 100.485 56.99 102 58 C102.47114738 60.7427508 102.17805784 63.19558897 102 66 C101.67 66.33 101.34 66.66 101 67 C106.28 67 111.56 67 117 67 C116.67 66.67 116.34 66.34 116 66 C115.62913907 60.1589404 115.62913907 60.1589404 116 58 C119.46923881 55.68717413 120.92205575 55.57521414 125 56 C126.875 57.125 126.875 57.125 128 59 C128.42478586 63.07794425 128.31282587 64.53076119 126 68 C131.61 68 137.22 68 143 68 C142.34 66.68 141.68 65.36 141 64 C140.65641584 61.1826099 140.61911077 59.64975221 142.0625 57.1875 C145.12613274 55.30978961 147.50164045 55.56270506 151 56 C153 57.625 153 57.625 154 60 C153.57446809 65.42553191 153.57446809 65.42553191 152 67 C157.61 67.33 163.22 67.66 169 68 C168.34 67.01 167.68 66.02 167 65 C166.67497197 61.87973093 166.48848521 59.85252465 168.125 57.125 C170.88090884 55.47145469 172.85075452 55.60634432 176 56 C177.875 57.125 177.875 57.125 179 59 C179.42478586 63.07794425 179.31282587 64.53076119 177 68 C185.415 67.505 185.415 67.505 194 67 C193.34 66.01 192.68 65.02 192 64 C192.44444444 58.55555556 192.44444444 58.55555556 195 56 C200.97716895 55.456621 200.97716895 55.456621 204 57.0625 C205.60015858 60.16280725 204.72191956 62.69120201 204 66 C203.67 66.66 203.34 67.32 203 68 C208.61 68 214.22 68 220 68 C219.34 67.01 218.68 66.02 218 65 C217.67497197 61.87973093 217.48848521 59.85252465 219.125 57.125 C221.85252465 55.48848521 223.87973093 55.67497197 227 56 C227.99 56.66 228.98 57.32 230 58 C230.47114738 60.7427508 230.17805784 63.19558897 230 66 C229.67 66.33 229.34 66.66 229 67 C232.3 67.33 235.6 67.66 239 68 C239 68.33 239 68.66 239 69 C235.535 69.99 235.535 69.99 232 71 C231.70437633 76.32170494 231.70437633 76.32170494 234 81 C227.4 81 220.8 81 214 81 C214.99 79.68 215.98 78.36 217 77 C217.41717279 74.41537838 217.41717279 74.41537838 217 72 C215.05667668 69.62005632 215.05667668 69.62005632 211.5 69.75 C207.94332332 69.62005632 207.94332332 69.62005632 206 72 C206.41015778 76.65624995 206.41015778 76.65624995 208 81 C201.73 81 195.46 81 189 81 C189.99 79.515 189.99 79.515 191 78 C191.33340471 74.95804573 191.33340471 74.95804573 191 72 C189.05032721 69.60435072 189.05032721 69.60435072 185.4375 69.8125 C182.17036305 69.60712194 182.17036305 69.60712194 181 71 C180.66143172 76.32673036 180.66143172 76.32673036 183 81 C176.4 81 169.8 81 163 81 C163.99 79.515 163.99 79.515 165 78 C165.25015873 74.41642759 165.25015873 74.41642759 165 71 C163.99163938 69.76732652 163.99163938 69.76732652 161.93359375 69.90234375 C161.10988281 69.91394531 160.28617188 69.92554688 159.4375 69.9375 C158.61121094 69.94652344 157.78492188 69.95554687 156.93359375 69.96484375 C156.29550781 69.97644531 155.65742188 69.98804688 155 70 C154.95875 71.258125 154.9175 72.51625 154.875 73.8125 C154.85179687 74.52019531 154.82859375 75.22789062 154.8046875 75.95703125 C154.86745538 78.31359719 154.86745538 78.31359719 157 81 C150.73 81 144.46 81 138 81 C138.99 79.02 138.99 79.02 140 77 C140.33374277 74.41583753 140.33374277 74.41583753 140 72 C138.05667668 69.62005632 138.05667668 69.62005632 134.5 69.75 C130.94332332 69.62005632 130.94332332 69.62005632 129 72 C129.23864442 77.03505052 129.23864442 77.03505052 132 81 C125.4 81 118.8 81 112 81 C112.99 79.515 112.99 79.515 114 78 C114.28662433 73.85223727 114.28662433 73.85223727 113 70 C108.99745544 69.90818866 108.99745544 69.90818866 105 70 C103.61471351 71.16302154 103.61471351 71.16302154 103.8125 74.375 C103.69546147 78.09675391 103.69546147 78.09675391 106 81 C99.4 81 92.8 81 86 81 C86.99 79.68 87.98 78.36 89 77 C89.41717279 74.41537838 89.41717279 74.41537838 89 72 C87.05667668 69.62005632 87.05667668 69.62005632 83.5 69.75 C79.94332332 69.62005632 79.94332332 69.62005632 78 72 C78.41015778 76.65624995 78.41015778 76.65624995 80 81 C73.73 81 67.46 81 61 81 C61.99 79.515 61.99 79.515 63 78 C63.33340471 74.95804573 63.33340471 74.95804573 63 72 C61.05032721 69.60435072 61.05032721 69.60435072 57.4375 69.8125 C54.17036305 69.60712194 54.17036305 69.60712194 53 71 C52.66143172 76.32673036 52.66143172 76.32673036 55 81 C48.4 81 41.8 81 35 81 C35.99 79.515 35.99 79.515 37 78 C37.25015873 74.41642759 37.25015873 74.41642759 37 71 C35.82963695 69.60712194 35.82963695 69.60712194 32.5625 69.8125 C28.94967279 69.60435072 28.94967279 69.60435072 27 72 C26.65509678 76.05261287 26.69836118 77.54754176 29 81 C22.73 81 16.46 81 10 81 C10.66 79.68 11.32 78.36 12 77 C12.33374277 74.41583753 12.33374277 74.41583753 12 72 C10.06397953 69.62801043 10.06397953 69.62801043 6.5625 69.75 C2.89579382 69.71190353 2.89579382 69.71190353 0 72 C0 65.07 0 58.14 0 51 C0.99 51.99 1.98 52.98 3 54 C6.54213985 54.50007794 6.54213985 54.50007794 10 54 C12.36692966 51.15173402 12.36692966 51.15173402 11.625 47.8125 C11.41875 46.884375 11.2125 45.95625 11 45 C7.68815293 44.22868094 7.68815293 44.22868094 4 44 C2.68 44.99 1.36 45.98 0 47 C0 40.07 0 33.14 0 26 C1.32 26.99 2.64 27.98 4 29 C7.68815293 28.77131906 7.68815293 28.77131906 11 28 C12.17008745 23.38990512 12.17008745 23.38990512 10.875 19.0625 C8.34669829 17.6297957 6.86958009 17.58006145 4 18 C2.68 18.99 1.36 19.98 0 21 C0 14.07 0 7.14 0 0 Z " fill="#F3D3CA" transform="translate(115,226)"/>
    <path d="M0 0 C1.62716446 -0.01913956 1.62716446 -0.01913956 3.28720093 -0.03866577 C4.45908966 -0.04089142 5.63097839 -0.04311707 6.83837891 -0.04541016 C8.04305817 -0.05206696 9.24773743 -0.05872375 10.48892212 -0.06558228 C13.03931143 -0.0757154 15.5897273 -0.08039909 18.14013672 -0.08007812 C22.04259973 -0.08444764 25.94392886 -0.12075274 29.84619141 -0.15869141 C32.32275003 -0.16456008 34.79931404 -0.16852913 37.27587891 -0.17041016 C39.02763931 -0.19196671 39.02763931 -0.19196671 40.81478882 -0.21395874 C45.31846574 -0.1885598 48.77710945 -0.11235071 52.92431641 1.71801758 C55.62537048 5.6534444 55.40631653 9.23791768 55.35400391 13.91162109 C55.35878754 14.84853287 55.36357117 15.78544464 55.36849976 16.75074768 C55.37189893 18.73025188 55.36269524 20.70981219 55.34179688 22.68920898 C55.315061 25.71449497 55.34152799 28.73606077 55.37353516 31.76123047 C55.37023047 33.68636885 55.36382303 35.61150492 55.35400391 37.53662109 C55.36918564 38.88994789 55.36918564 38.88994789 55.38467407 40.27061462 C55.30104921 44.7678957 55.14933042 46.69740771 52.31567383 50.35595703 C49.43578777 52.47778103 47.91105255 52.9616829 44.37744141 53.10302734 C43.49443359 53.15072266 42.61142578 53.19841797 41.70166016 53.24755859 C41.03779297 53.26173828 40.37392578 53.27591797 39.68994141 53.29052734 C40.34994141 53.95052734 41.00994141 54.61052734 41.68994141 55.29052734 C41.22840294 61.75206581 41.22840294 61.75206581 38.68994141 64.29052734 C35.25244141 64.66552734 35.25244141 64.66552734 31.68994141 64.29052734 C29.68994141 62.66552734 29.68994141 62.66552734 28.68994141 60.29052734 C29.11547332 54.86499543 29.11547332 54.86499543 30.68994141 53.29052734 C25.07994141 52.96052734 19.46994141 52.63052734 13.68994141 52.29052734 C14.34994141 53.28052734 15.00994141 54.27052734 15.68994141 55.29052734 C16.01496943 58.41079641 16.2014562 60.4380027 14.56494141 63.16552734 C11.80903256 64.81907265 9.83918688 64.68418303 6.68994141 64.29052734 C4.81494141 63.16552734 4.81494141 63.16552734 3.68994141 61.29052734 C3.43728736 58.19551526 3.29059127 56.08922761 4.68994141 53.29052734 C3.67673828 53.25185547 3.67673828 53.25185547 2.64306641 53.21240234 C1.75103516 53.15568359 0.85900391 53.09896484 -0.06005859 53.04052734 C-0.94177734 52.99412109 -1.82349609 52.94771484 -2.73193359 52.89990234 C-6.0867513 52.10694543 -7.27762598 51.06202636 -9.31005859 48.29052734 C-9.91943359 45.27490234 -9.91943359 45.27490234 -10.06005859 42.04052734 C-10.11677734 40.96287109 -10.17349609 39.88521484 -10.23193359 38.77490234 C-10.25771484 37.95505859 -10.28349609 37.13521484 -10.31005859 36.29052734 C-10.97714844 37.01949219 -10.97714844 37.01949219 -11.65771484 37.76318359 C-13.31005859 39.29052734 -13.31005859 39.29052734 -15.74755859 39.72802734 C-18.31005859 39.29052734 -18.31005859 39.29052734 -20.68505859 37.72802734 C-22.31005859 35.29052734 -22.31005859 35.29052734 -22.24755859 31.66552734 C-21.31005859 28.29052734 -21.31005859 28.29052734 -18.31005859 26.29052734 C-15.81005859 25.97802734 -15.81005859 25.97802734 -13.31005859 26.29052734 C-12.32005859 27.28052734 -11.33005859 28.27052734 -10.31005859 29.29052734 C-10.31005859 23.02052734 -10.31005859 16.75052734 -10.31005859 10.29052734 C-11.30005859 11.28052734 -12.29005859 12.27052734 -13.31005859 13.29052734 C-16.31005859 13.72802734 -16.31005859 13.72802734 -19.31005859 13.29052734 C-21.66216643 11.17363029 -22.22816813 9.8501122 -22.68505859 6.72802734 C-22.31005859 4.29052734 -22.31005859 4.29052734 -21.24755859 2.47802734 C-18.2073568 0.61467786 -15.79177848 0.92403051 -12.31005859 1.29052734 C-9.87255859 2.79052734 -9.87255859 2.79052734 -8.31005859 4.29052734 C-8.31005859 3.63052734 -8.31005859 2.97052734 -8.31005859 2.29052734 C-4.97929216 0.07001639 -3.88739532 0.03102179 0 0 Z " fill="#262223" transform="translate(150.31005859375,229.70947265625)"/>
    <path d="M0 0 C0.99 0.66 1.98 1.32 3 2 C3.47114738 4.7427508 3.17805784 7.19558897 3 10 C2.67 10.33 2.34 10.66 2 11 C7.28 11 12.56 11 18 11 C17.505 10.505 17.505 10.505 17 10 C16.62913907 4.1589404 16.62913907 4.1589404 17 2 C20.46923881 -0.31282587 21.92205575 -0.42478586 26 0 C27.875 1.125 27.875 1.125 29 3 C29.42478586 7.07794425 29.31282587 8.53076119 27 12 C32.61 12 38.22 12 44 12 C43.34 10.68 42.68 9.36 42 8 C41.65641584 5.1826099 41.61911077 3.64975221 43.0625 1.1875 C46.12613274 -0.69021039 48.50164045 -0.43729494 52 0 C54 1.625 54 1.625 55 4 C54.57446809 9.42553191 54.57446809 9.42553191 53 11 C58.61 11.33 64.22 11.66 70 12 C69.01 10.515 69.01 10.515 68 9 C67.67497197 5.87973093 67.48848521 3.85252465 69.125 1.125 C71.88090884 -0.52854531 73.85075452 -0.39365568 77 0 C78.875 1.125 78.875 1.125 80 3 C80.42478586 7.07794425 80.31282587 8.53076119 78 12 C86.415 11.505 86.415 11.505 95 11 C94.01 9.515 94.01 9.515 93 8 C93.44444444 2.55555556 93.44444444 2.55555556 96 0 C101.97716895 -0.543379 101.97716895 -0.543379 105 1.0625 C106.60015858 4.16280725 105.72191956 6.69120201 105 10 C104.67 10.66 104.34 11.32 104 12 C109.61 12 115.22 12 121 12 C120.01 10.515 120.01 10.515 119 9 C118.67497197 5.87973093 118.48848521 3.85252465 120.125 1.125 C122.85252465 -0.51151479 124.87973093 -0.32502803 128 0 C128.99 0.66 129.98 1.32 131 2 C131.47114738 4.7427508 131.17805784 7.19558897 131 10 C130.67 10.33 130.34 10.66 130 11 C133.3 11.33 136.6 11.66 140 12 C140 12.33 140 12.66 140 13 C137.69 13.66 135.38 14.32 133 15 C132.70437633 20.32170494 132.70437633 20.32170494 135 25 C128.4 25 121.8 25 115 25 C115.99 23.68 116.98 22.36 118 21 C118.41717279 18.41537838 118.41717279 18.41537838 118 16 C116.05667668 13.62005632 116.05667668 13.62005632 112.5 13.75 C108.94332332 13.62005632 108.94332332 13.62005632 107 16 C107.41015778 20.65624995 107.41015778 20.65624995 109 25 C102.73 25 96.46 25 90 25 C90.99 23.515 90.99 23.515 92 22 C92.33340471 18.95804573 92.33340471 18.95804573 92 16 C90.05032721 13.60435072 90.05032721 13.60435072 86.4375 13.8125 C83.17036305 13.60712194 83.17036305 13.60712194 82 15 C81.66143172 20.32673036 81.66143172 20.32673036 84 25 C77.4 25 70.8 25 64 25 C64.99 23.515 64.99 23.515 66 22 C66.25015873 18.41642759 66.25015873 18.41642759 66 15 C64.99163938 13.76732652 64.99163938 13.76732652 62.93359375 13.90234375 C61.69802734 13.91974609 61.69802734 13.91974609 60.4375 13.9375 C59.61121094 13.94652344 58.78492188 13.95554687 57.93359375 13.96484375 C57.29550781 13.97644531 56.65742188 13.98804688 56 14 C55.95875 15.258125 55.9175 16.51625 55.875 17.8125 C55.85179687 18.52019531 55.82859375 19.22789062 55.8046875 19.95703125 C55.86745538 22.31359719 55.86745538 22.31359719 58 25 C51.73 25 45.46 25 39 25 C39.66 23.68 40.32 22.36 41 21 C41.33374277 18.41583753 41.33374277 18.41583753 41 16 C39.05667668 13.62005632 39.05667668 13.62005632 35.5 13.75 C31.94332332 13.62005632 31.94332332 13.62005632 30 16 C30.23864442 21.03505052 30.23864442 21.03505052 33 25 C26.4 25 19.8 25 13 25 C13.66 24.01 14.32 23.02 15 22 C15.28662433 17.85223727 15.28662433 17.85223727 14 14 C9.99745544 13.90818866 9.99745544 13.90818866 6 14 C4.61471351 15.16302154 4.61471351 15.16302154 4.8125 18.375 C4.69546147 22.09675391 4.69546147 22.09675391 7 25 C0.4 25 -6.2 25 -13 25 C-12.01 23.68 -11.02 22.36 -10 21 C-9.58282721 18.41537838 -9.58282721 18.41537838 -10 16 C-12.5654594 13.4345406 -14.47686668 13.45953913 -18 13 C-18 12.67 -18 12.34 -18 12 C-14.37 12 -10.74 12 -7 12 C-7.66 11.01 -8.32 10.02 -9 9 C-9.32502803 5.87973093 -9.51151479 3.85252465 -7.875 1.125 C-5.14747535 -0.51151479 -3.12026907 -0.32502803 0 0 Z " fill="#F0D0C8" transform="translate(214,282)"/>
    <path d="M0 0 C12.87 0 25.74 0 39 0 C39 8.58 39 17.16 39 26 C26.13 26 13.26 26 0 26 C0 17.42 0 8.84 0 0 Z " fill="#058805" transform="translate(153,243)"/>
    <path d="M0 0 C0.99 0.99 1.98 1.98 3 3 C6.5 3.5 6.5 3.5 10 3 C11.71170611 1.54955743 11.71170611 1.54955743 13 0 C13.04898438 0.90363281 13.09796875 1.80726563 13.1484375 2.73828125 C13.22320312 3.91777344 13.29796875 5.09726563 13.375 6.3125 C13.44460937 7.48425781 13.51421875 8.65601563 13.5859375 9.86328125 C13.78613747 13.15699887 13.78613747 13.15699887 16 16 C17.97747122 16.36297936 17.97747122 16.36297936 20.125 16.1875 C21.40375 16.125625 22.6825 16.06375 24 16 C24.33 15.01 24.66 14.02 25 13 C25.33 13 25.66 13 26 13 C26 19.93 26 26.86 26 34 C24.68 33.01 23.36 32.02 22 31 C18.31184707 31.22868094 18.31184707 31.22868094 15 32 C14.2717552 36.99367864 13.61512818 41.99109914 13 47 C12.484375 46.484375 11.96875 45.96875 11.4375 45.4375 C7.98386566 43.40074129 5.80968111 44.08285455 2 45 C1.34 45.66 0.68 46.32 0 47 C0 40.07 0 33.14 0 26 C1.32 26.99 2.64 27.98 4 29 C7.68815293 28.77131906 7.68815293 28.77131906 11 28 C12.17008745 23.38990512 12.17008745 23.38990512 10.875 19.0625 C8.34669829 17.6297957 6.86958009 17.58006145 4 18 C2.68 18.99 1.36 19.98 0 21 C0 14.07 0 7.14 0 0 Z " fill="#EFCEC5" transform="translate(115,226)"/>
    <path d="M0 0 C0.99 0.99 1.98 1.98 3 3 C7.80202562 3.59141759 7.80202562 3.59141759 11.9375 1.5 C12.288125 1.005 12.63875 0.51 13 0 C13.33 2.31 13.66 4.62 14 7 C14.66 6.34 15.32 5.68 16 5 C19.4375 4.625 19.4375 4.625 23 5 C25 6.625 25 6.625 26 9 C25.77962372 12.67293796 25.63033454 14.36966546 23 17 C24.98 17.33 26.96 17.66 29 18 C28.34 18.99 27.68 19.98 27 21 C26.66042437 25.07490752 26.68667514 26.53001271 29 30 C22.73 30 16.46 30 10 30 C10.66 28.68 11.32 27.36 12 26 C12.33374277 23.41583753 12.33374277 23.41583753 12 21 C10.06397953 18.62801043 10.06397953 18.62801043 6.5625 18.75 C2.89579382 18.71190353 2.89579382 18.71190353 0 21 C0 14.07 0 7.14 0 0 Z " fill="#EFCEC5" transform="translate(115,277)"/>
    <path d="M0 0 C12.87 0 25.74 0 39 0 C39 4.29 39 8.58 39 13 C26.13 13 13.26 13 0 13 C0 8.71 0 4.42 0 0 Z " fill="#DE3207" transform="translate(230,243)"/>
    <path d="M0 0 C3.62117882 2.15356449 6.75274822 4.88406914 8 9 C8.50080333 12.83949223 8.17496478 14.66352927 6.375 18.125 C3.07880753 22.11512773 0.1911179 24.63481368 -5 25.5 C-9.60774666 24.73204222 -12.50295637 22.44542144 -15.8125 19.25 C-17.56615088 15.92729308 -18.22973209 12.71878822 -18 9 C-14.29989499 1.30378158 -8.30721176 -2.87939212 0 0 Z " fill="#0000FA" transform="translate(261,372)"/>
    <path d="M0 0 C4.73568207 2.46255468 7.67875306 5.17180635 10 10 C10.4423357 14.423357 9.45083317 17.85962984 6.75 21.375 C2.92103105 25.02992491 0.85511532 26.03372937 -4.4375 25.9375 C-9.43856824 24.62142941 -12.33585202 22.3449358 -15.375 18.0625 C-16.69420276 13.70913089 -16.48163573 10.92622256 -14.375 6.875 C-10.33217507 1.98105403 -6.53576291 -1.08929382 0 0 Z " fill="#0000FA" transform="translate(259,115)"/>
    <path d="M0 0 C3.15689734 1.60714774 5.19415756 2.97438234 7.375 5.75 C8.67051871 10.41386736 8.69344047 14.43975894 6.75 18.8125 C3.69980169 22.62524788 1.45050557 24.11975493 -3.375 24.9375 C-6.9224081 25.22339309 -8.02104516 24.98986715 -11.375 23.375 C-15.42392623 19.71168579 -16.82730056 17.55429492 -17.4375 12.0625 C-17.26839443 7.80265006 -15.78860181 5.25336878 -13 2 C-8.79680448 -0.56764245 -4.80111245 -0.68230714 0 0 Z " fill="#DA2B00" transform="translate(158,359)"/>
    <path d="M0 0 C3.43761572 2.12108204 5.77560839 4.1042085 7 8 C7.68482879 14.049321 6.40910735 17.17043126 3 22 C-1.35304475 24.79374514 -5.9974446 24.66484529 -11 24 C-14.66711159 21.86085157 -16.37072212 19.85102043 -18 16 C-18.64908204 12.24215662 -18.84103267 8.58489424 -17.01953125 5.15234375 C-12.06063821 -1.05771615 -7.39287203 -1.83501645 0 0 Z " fill="#F6AC3F" transform="translate(364,129)"/>
    <path d="M0 0 C3.85852527 3.29109509 4.99871965 5.67597688 5.5625 10.75 C5.37626393 15.04152681 3.99485359 17.5650341 1.125 20.8125 C-2.92608238 23.45451025 -6.0587565 24.51486884 -10.875 23.8125 C-15.18955798 21.52832225 -18.00952098 19.37255984 -19.875 14.8125 C-20.41833853 9.92245324 -20.39609104 7.81746129 -18.125 3.4375 C-13.33257941 -2.15365735 -6.67310728 -2.75628344 0 0 Z " fill="#F6AC3F" transform="translate(365.875,360.1875)"/>
    <path d="M0 0 C3.00559099 1.79335679 5.40823657 3.81647313 7 7 C7.57717357 11.73093088 7.43416625 15.14717343 5.25 19.4375 C2.64553443 22.40369689 0.74420306 23.75974305 -3.18359375 24.30078125 C-7.90921728 24.32535122 -11.29643664 24.26785002 -15 21 C-17.88402967 16.62423085 -18.64987517 13.19900136 -18 8 C-13.8351777 -0.02113925 -8.60103757 -2.52438185 0 0 Z " fill="#DA2B00" transform="translate(159,129)"/>
    <path d="M0 0 C12.54 0 25.08 0 38 0 C38 4.29 38 8.58 38 13 C25.46 13 12.92 13 0 13 C0 8.71 0 4.42 0 0 Z " fill="#F9AF42" transform="translate(333,243)"/>
    <path d="M0 0 C12.54 0 25.08 0 38 0 C38 4.29 38 8.58 38 13 C25.46 13 12.92 13 0 13 C0 8.71 0 4.42 0 0 Z " fill="#0303FF" transform="translate(282,243)"/>
    <path d="M0 0 C89.1 0 178.2 0 270 0 C270 0.33 270 0.66 270 1 C186.84 1.33 103.68 1.66 18 2 C18.99 3.485 18.99 3.485 20 5 C19.55555556 10.44444444 19.55555556 10.44444444 17 13 C13.5625 13.375 13.5625 13.375 10 13 C8 11.375 8 11.375 7 9 C7.42553191 3.57446809 7.42553191 3.57446809 9 2 C6.03 1.67 3.06 1.34 0 1 C0 0.67 0 0.34 0 0 Z " fill="#2C292A" transform="translate(121,204)"/>
    <path d="M0 0 C0.33 0 0.66 0 1 0 C1.03738281 0.90363281 1.07476562 1.80726563 1.11328125 2.73828125 C1.21189453 4.50751953 1.21189453 4.50751953 1.3125 6.3125 C1.37050781 7.48425781 1.42851562 8.65601563 1.48828125 9.86328125 C1.77614201 12.91757694 1.77614201 12.91757694 3.1875 14.875 C5.69071483 16.42871955 7.76210896 16.51541817 10.6875 16.6875 C11.68136719 16.75324219 12.67523438 16.81898438 13.69921875 16.88671875 C14.45847656 16.92410156 15.21773437 16.96148437 16 17 C15.91621094 17.61488281 15.83242187 18.22976563 15.74609375 18.86328125 C15.64425781 19.67152344 15.54242188 20.47976563 15.4375 21.3125 C15.33308594 22.11300781 15.22867188 22.91351563 15.12109375 23.73828125 C14.85244822 26.16817116 14.85244822 26.16817116 16 29 C6.595 29.495 6.595 29.495 -3 30 C-2.01 28.35 -1.02 26.7 0 25 C-0.12937722 21.16098369 -0.12937722 21.16098369 -2 18 C-7.32673036 17.66143172 -7.32673036 17.66143172 -12 20 C-12 13.73 -12 7.46 -12 1 C-10.02 1.99 -10.02 1.99 -8 3 C-5.45769153 3.41679297 -5.45769153 3.41679297 -3 3 C-1.2488427 1.5833253 -1.2488427 1.5833253 0 0 Z " fill="#F9F8F8" transform="translate(140,265)"/>
    <path d="M0 0 C1.875 1.125 1.875 1.125 3 3 C3.42478586 7.07794425 3.31282587 8.53076119 1 12 C5.10498209 11.91928281 9.20846109 11.80642513 13.3125 11.6875 C14.47974609 11.66494141 15.64699219 11.64238281 16.84960938 11.61914062 C17.96787109 11.58369141 19.08613281 11.54824219 20.23828125 11.51171875 C21.7857605 11.47244263 21.7857605 11.47244263 23.36450195 11.43237305 C26.29691033 10.95128965 27.20735923 10.30866329 29 8 C29.10832169 10.08218362 29.18573541 12.16599129 29.25 14.25 C29.29640625 15.41015625 29.3428125 16.5703125 29.390625 17.765625 C29 21 29 21 27.375 23.40625 C24.30478899 25.46652317 22.41398755 25.40930381 18.75 25.25 C17.67234375 25.21390625 16.5946875 25.1778125 15.484375 25.140625 C14.25460937 25.07101562 14.25460937 25.07101562 13 25 C13.32484375 24.39414062 13.6496875 23.78828125 13.984375 23.1640625 C15.20185941 20.56988417 15.29847984 18.83555844 15 16 C12.20230441 13.20230441 10.21820137 13.66602344 6.3125 13.5 C-6.22058824 12.77941176 -6.22058824 12.77941176 -9 10 C-9.37086093 4.1589404 -9.37086093 4.1589404 -9 2 C-5.53076119 -0.31282587 -4.07794425 -0.42478586 0 0 Z " fill="#EED0C8" transform="translate(368,282)"/>
    <path d="M0 0 C18.15 0 36.3 0 55 0 C55 0.33 55 0.66 55 1 C51.7 1.33 48.4 1.66 45 2 C45.66 2.66 46.32 3.32 47 4 C46.53846154 10.46153846 46.53846154 10.46153846 44 13 C40.5625 13.375 40.5625 13.375 37 13 C35 11.375 35 11.375 34 9 C34.42553191 3.57446809 34.42553191 3.57446809 36 2 C30.39 1.67 24.78 1.34 19 1 C19.66 1.99 20.32 2.98 21 4 C21.32502803 7.12026907 21.51151479 9.14747535 19.875 11.875 C17.11909116 13.52854531 15.14924548 13.39365568 12 13 C10.125 11.875 10.125 11.875 9 10 C8.74734595 6.90498792 8.60064987 4.79870027 10 2 C6.7 1.67 3.4 1.34 0 1 C0 0.67 0 0.34 0 0 Z " fill="#444141" transform="translate(145,281)"/>
    <path d="M0 0 C0 0.33 0 0.66 0 1 C-2.31 1.66 -4.62 2.32 -7 3 C-7.29562367 8.32170494 -7.29562367 8.32170494 -5 13 C-11.6 13 -18.2 13 -25 13 C-24.34 12.01 -23.68 11.02 -23 10 C-22.92094936 7.66800612 -22.91201231 5.33167378 -23 3 C-25.31 2.34 -27.62 1.68 -30 1 C-30 0.67 -30 0.34 -30 0 C-19.96033167 -1.46646841 -10.07002829 -0.67829206 0 0 Z " fill="#ECCCC4" transform="translate(175,294)"/>
    <path d="M0 0 C0.99 0.99 1.98 1.98 3 3 C6.5 3.5 6.5 3.5 10 3 C11.71170611 1.54955743 11.71170611 1.54955743 13 0 C14.33257403 14.78132118 14.33257403 14.78132118 13 21 C12.443125 20.505 11.88625 20.01 11.3125 19.5 C8.53854262 17.7006763 7.24806861 17.51278971 4 18 C2.68 18.99 1.36 19.98 0 21 C0 14.07 0 7.14 0 0 Z " fill="#EECDC5" transform="translate(115,226)"/>
    <path d="M0 0 C0.33 0 0.66 0 1 0 C1 6.93 1 13.86 1 21 C-0.32 20.01 -1.64 19.02 -3 18 C-6.32044817 18.22899643 -9.010197 18.5050985 -12 20 C-12 13.73 -12 7.46 -12 1 C-10.515 1.99 -10.515 1.99 -9 3 C-6.94290404 3.24055468 -6.94290404 3.24055468 -4.8125 3.125 C-3.554375 3.08375 -2.29625 3.0425 -1 3 C-0.67 2.01 -0.34 1.02 0 0 Z " fill="#F7F6F6" transform="translate(140,239)"/>
    <path d="M0 0 C-0.99 1.485 -0.99 1.485 -2 3 C-1.76787034 8.04001408 -1.76787034 8.04001408 1 12 C-5.6 12 -12.2 12 -19 12 C-18.34 11.01 -17.68 10.02 -17 9 C-16.62521757 5.47704517 -16.58872755 3.65118137 -18.5 0.625 C-18.995 0.08875 -19.49 -0.4475 -20 -1 C-13.13638499 -2.59618954 -6.85445096 -1.24720085 0 0 Z " fill="#F2D1C9" transform="translate(374,295)"/>
    <path d="M0 0 C1.07765625 0.03609375 2.1553125 0.0721875 3.265625 0.109375 C4.49539062 0.17898437 4.49539062 0.17898437 5.75 0.25 C5.43289062 0.78109375 5.11578125 1.3121875 4.7890625 1.859375 C3.5129651 4.79535848 3.33292979 7.31174329 3.125 10.5 C3.05023438 11.57765625 2.97546875 12.6553125 2.8984375 13.765625 C2.84945312 14.58546875 2.80046875 15.4053125 2.75 16.25 C1.76 15.59 0.77 14.93 -0.25 14.25 C-3.75 13.83333333 -3.75 13.83333333 -7.25 14.25 C-8.96301056 15.69654985 -8.96301056 15.69654985 -10.25 17.25 C-10.35832169 15.16781638 -10.43573541 13.08400871 -10.5 11 C-10.54640625 9.83984375 -10.5928125 8.6796875 -10.640625 7.484375 C-10.25 4.25 -10.25 4.25 -8.625 1.84375 C-5.55478899 -0.21652317 -3.66398755 -0.15930381 0 0 Z " fill="#F0D0C8" transform="translate(125.25,204.75)"/>
    <path d="M0 0 C5.94 0 11.88 0 18 0 C17.34 1.32 16.68 2.64 16 4 C16.29752496 6.97524961 16.66120597 9.32241195 18 12 C12.06 12 6.12 12 0 12 C0.29296875 9.75390625 0.5859375 7.5078125 0.87890625 5.26171875 C1.14755178 2.83182884 1.14755178 2.83182884 0 0 Z " fill="#FAFAFA" transform="translate(164,282)"/>
    <path d="M0 0 C2.73251347 1.99399631 3.83247946 3.1623973 4.5 6.5 C3.83247946 9.8376027 2.73251347 11.00600369 0 13 C-3.32374383 13.66474877 -4.54002606 13.30261443 -7.375 11.4375 C-9 9 -9 9 -8.9375 5.375 C-7.54306692 0.35504089 -4.94190347 -0.72320539 0 0 Z " fill="#2D292A" transform="translate(137,256)"/>
    <path d="M0 0 C2.5 0.5 2.5 0.5 4.875 2.0625 C6.5 4.5 6.5 4.5 6.4375 8.125 C5.5 11.5 5.5 11.5 2.5 13.5 C-0.83579974 14.01319996 -2.05843891 13.82222026 -4.8125 11.8125 C-6.5 9.5 -6.5 9.5 -7 7 C-6.17118793 2.85593966 -4.14406034 0.82881207 0 0 Z " fill="#2D2728" transform="translate(121.5,242.5)"/>
    <path d="M0 0 C2 1.625 2 1.625 3 4 C2.77962372 7.67293796 2.63033454 9.36966546 0 12 C-3.4375 12.375 -3.4375 12.375 -7 12 C-9.42061048 9.89172636 -9.9127007 8.59654522 -10.375 5.4375 C-10 3 -10 3 -8.9375 1.1875 C-5.87386726 -0.69021039 -3.49835955 -0.43729494 0 0 Z " fill="#2B2728" transform="translate(394,282)"/>
    <path d="M0 0 C3.5625 0.3125 3.5625 0.3125 5.5625 1.375 C7.17897822 4.50692656 6.34915296 6.98435286 5.5625 10.3125 C3.5625 12.3125 3.5625 12.3125 0.125 12.6875 C-3.4375 12.3125 -3.4375 12.3125 -5.4375 10.6875 C-6.77930884 7.50070399 -6.36697204 5.60140107 -5.4375 2.3125 C-3.4375 0.3125 -3.4375 0.3125 0 0 Z " fill="#2B2829" transform="translate(313.4375,281.6875)"/>
    <path d="M0 0 C2 1.625 2 1.625 3 4 C2.77962372 7.67293796 2.63033454 9.36966546 0 12 C-3.4375 12.375 -3.4375 12.375 -7 12 C-9.42061048 9.89172636 -9.9127007 8.59654522 -10.375 5.4375 C-10 3 -10 3 -8.9375 1.1875 C-5.87386726 -0.69021039 -3.49835955 -0.43729494 0 0 Z " fill="#2C2829" transform="translate(266,282)"/>
    <path d="M0 0 C2.4375 2 2.4375 2 4 4 C1.25 10.875 1.25 10.875 -1 12 C-3.9375 12.3125 -3.9375 12.3125 -7 12 C-9.35210784 9.88310295 -9.91810953 8.55958485 -10.375 5.4375 C-10 3 -10 3 -8.9375 1.1875 C-5.86370782 -0.69643714 -3.51614342 -0.43180709 0 0 Z " fill="#2B2829" transform="translate(138,231)"/>
    <path d="M0 0 C3.5625 0.3125 3.5625 0.3125 5.5625 1.375 C7.17897822 4.50692656 6.34915296 6.98435286 5.5625 10.3125 C3.5625 12.3125 3.5625 12.3125 0.125 12.6875 C-3.4375 12.3125 -3.4375 12.3125 -5.4375 10.6875 C-6.77930884 7.50070399 -6.36697204 5.60140107 -5.4375 2.3125 C-3.4375 0.3125 -3.4375 0.3125 0 0 Z " fill="#2B2626" transform="translate(121.4375,217.6875)"/>
    <path d="M0 0 C3.5625 0.375 3.5625 0.375 5.5625 2 C6.90430884 5.18679601 6.49197204 7.08609893 5.5625 10.375 C3.5625 12.375 3.5625 12.375 0.125 12.75 C-3.4375 12.375 -3.4375 12.375 -5.4375 10.75 C-6.77930884 7.56320399 -6.36697204 5.66390107 -5.4375 2.375 C-3.4375 0.375 -3.4375 0.375 0 0 Z " fill="#2B2728" transform="translate(134.4375,281.625)"/>
    <path d="M0 0 C1.875 1.125 1.875 1.125 3 3 C3.39365568 6.14924548 3.52854531 8.11909116 1.875 10.875 C-0.85252465 12.51151479 -2.87973093 12.32502803 -6 12 C-9 10 -9 10 -9.3984375 8.125 C-9.39070313 7.42375 -9.38296875 6.7225 -9.375 6 C-9.38273437 5.29875 -9.39046875 4.5975 -9.3984375 3.875 C-8.40051164 -0.82112168 -3.84325308 -0.40033886 0 0 Z " fill="#282425" transform="translate(368,282)"/>
    <path d="M0 0 C3 2 3 2 3.3984375 3.875 C3.39070313 4.57625 3.38296875 5.2775 3.375 6 C3.38273437 6.70125 3.39046875 7.4025 3.3984375 8.125 C3 10 3 10 0 12 C-3.12026907 12.32502803 -5.14747535 12.51151479 -7.875 10.875 C-9.52854531 8.11909116 -9.39365568 6.14924548 -9 3 C-6.78229215 -0.69617975 -4.0271794 -0.41949785 0 0 Z " fill="#282425" transform="translate(342,282)"/>
    <path d="M0 0 C1.875 1.125 1.875 1.125 3 3 C3.39365568 6.14924548 3.52854531 8.11909116 1.875 10.875 C-0.85252465 12.51151479 -2.87973093 12.32502803 -6 12 C-9 10 -9 10 -9.3984375 8.125 C-9.39070312 7.42375 -9.38296875 6.7225 -9.375 6 C-9.38273438 5.29875 -9.39046875 4.5975 -9.3984375 3.875 C-8.40051164 -0.82112168 -3.84325308 -0.40033886 0 0 Z " fill="#282425" transform="translate(240,282)"/>
    <path d="M0 0 C3 2 3 2 3.3984375 3.875 C3.39070312 4.57625 3.38296875 5.2775 3.375 6 C3.38273438 6.70125 3.39046875 7.4025 3.3984375 8.125 C3 10 3 10 0 12 C-3.12026907 12.32502803 -5.14747535 12.51151479 -7.875 10.875 C-9.52854531 8.11909116 -9.39365568 6.14924548 -9 3 C-6.78229215 -0.69617975 -4.0271794 -0.41949785 0 0 Z " fill="#282425" transform="translate(214,282)"/>
    <path d="M0 0 C0.70125 -0.01675781 1.4025 -0.03351563 2.125 -0.05078125 C2.74375 0.06910156 3.3625 0.18898438 4 0.3125 C6.31361802 3.78292703 6.51020728 5.23084173 6 9.3125 C4.375 11.25 4.375 11.25 2 12.3125 C-1.67293796 12.09212372 -3.36966546 11.94283454 -6 9.3125 C-6.25 5.8125 -6.25 5.8125 -6 2.3125 C-3.67471713 -0.01278287 -3.15334102 0.01738975 0 0 Z " fill="#282324" transform="translate(352,294.6875)"/>
    <path d="M0 0 C2 2 2 2 2.375 5.4375 C2 9 2 9 0.375 11 C-2.81179601 12.34180884 -4.71109893 11.92947204 -8 11 C-10 9 -10 9 -10.3125 6.0625 C-10 3 -10 3 -8.9375 1.125 C-5.93267901 -0.61973477 -3.39189869 -0.30835443 0 0 Z " fill="#272223" transform="translate(279,295)"/>
    <path d="M0 0 C1.875 1.125 1.875 1.125 3 3 C3.39365568 6.14924548 3.52854531 8.11909116 1.875 10.875 C-0.88090884 12.52854531 -2.85075452 12.39365568 -6 12 C-7.875 10.875 -7.875 10.875 -9 9 C-9.39365568 5.85075452 -9.52854531 3.88090884 -7.875 1.125 C-5.11909116 -0.52854531 -3.14924548 -0.39365568 0 0 Z " fill="#252223" transform="translate(291,282)"/>
    <path d="M0 0 C1.875 1.125 1.875 1.125 3 3 C3.39365568 6.14924548 3.52854531 8.11909116 1.875 10.875 C-0.88090884 12.52854531 -2.85075452 12.39365568 -6 12 C-7.875 10.875 -7.875 10.875 -9 9 C-9.39365568 5.85075452 -9.52854531 3.88090884 -7.875 1.125 C-5.11909116 -0.52854531 -3.14924548 -0.39365568 0 0 Z " fill="#252223" transform="translate(163,282)"/>
    <path d="M0 0 C3.5625 0.3125 3.5625 0.3125 5.5 1.4375 C7.10375059 4.26764811 7.09333754 6.12747476 6.5625 9.3125 C4.375 11.25 4.375 11.25 1.5625 12.3125 C-1.8385144 12.07521993 -3.007034 11.742966 -5.4375 9.3125 C-5.6875 5.8125 -5.6875 5.8125 -5.4375 2.3125 C-3.4375 0.3125 -3.4375 0.3125 0 0 Z " fill="#262222" transform="translate(300.4375,294.6875)"/>
    <path d="M0 0 C3.5625 0.3125 3.5625 0.3125 5.5 1.4375 C7.10375059 4.26764811 7.09333754 6.12747476 6.5625 9.3125 C4.375 11.25 4.375 11.25 1.5625 12.3125 C-1.8385144 12.07521993 -3.007034 11.742966 -5.4375 9.3125 C-5.6875 5.8125 -5.6875 5.8125 -5.4375 2.3125 C-3.4375 0.3125 -3.4375 0.3125 0 0 Z " fill="#262222" transform="translate(172.4375,294.6875)"/>
    <path d="M0 0 C2 2 2 2 2.375 5.4375 C2 9 2 9 0.375 11 C-2.81179601 12.34180884 -4.71109893 11.92947204 -8 11 C-10 9 -10 9 -10.3125 6.0625 C-10 3 -10 3 -8.9375 1.125 C-5.93267901 -0.61973477 -3.39189869 -0.30835443 0 0 Z " fill="#262222" transform="translate(151,295)"/>
</svg>
